<svg
  aria-hidden="true"
  style="position: absolute; width: 0; height: 0; overflow: hidden;"
  version="1.1"
  xmlns="http://www.w3.org/2000/svg"
  xmlns:xlink="http://www.w3.org/1999/xlink"
>
<defs>
<symbol id="icon-close" viewBox="0 0 32 32">
<path
        stroke-linejoin="miter"
        stroke-linecap="butt"
        stroke-miterlimit="4"
        stroke-width="2.1333"
        d="M8.533 8.533l14.933 14.933M8.533 23.467l14.933-14.933"
      />
</symbol>
<symbol id="icon-search" viewBox="0 0 32 32">
<path
        fill="none"
        stroke="#fff"
        style="stroke: var(--color1, #fff)"
        stroke-linejoin="round"
        stroke-linecap="round"
        stroke-miterlimit="4"
        stroke-width="2.6667"
        d="M14.667 25.333c5.891 0 10.667-4.776 10.667-10.667s-4.776-10.667-10.667-10.667v0c-5.891 0-10.667 4.776-10.667 10.667s4.776 10.667 10.667 10.667v0zM28 28l-5.8-5.8"
      />
</symbol>
<symbol id="icon-heart" viewBox="0 0 34 32">
<path
        d="M17.231 31.705l-2.412-2.412c-8.96-7.926-14.818-13.268-14.818-19.815 0-5.342 4.135-9.477 9.477-9.477 2.929 0 5.858 1.378 7.754 3.618 1.895-2.24 4.825-3.618 7.754-3.618 5.342 0 9.477 4.135 9.477 9.477 0 6.548-5.858 11.889-14.818 19.815l-2.412 2.412z"
      />
</symbol>
<symbol id="moon" viewBox="0 0 32 32"><path
        fill="currentColor"
        d="M17.701 32a15.97 15.97 0 0012.429-5.925c.442-.544-.04-1.339-.723-1.209-7.763 1.478-14.891-4.474-14.891-12.31 0-4.514 2.416-8.665 6.344-10.9.605-.345.453-1.262-.235-1.389-.879-.17-1.89-.267-2.923-.268-8.832 0-16 7.157-16 16 0 8.832 7.157 16 16 16z"
      /></symbol>
<symbol id="sun" viewBox="0 0 32 32"><path
        fill="currentColor"
        d="M16 10c-3.306 0-6 2.694-6 6s2.694 6 6 6 6-2.694 6-6-2.694-6-6-6zm15.4 5.031l-5.919-2.956L27.575 5.8c.281-.85-.525-1.656-1.369-1.369l-6.275 2.094L16.969.6c-.4-.8-1.537-.8-1.938 0l-2.956 5.919-6.281-2.094c-.85-.281-1.656.525-1.369 1.369l2.094 6.275L.6 15.032c-.8.4-.8 1.538 0 1.938l5.919 2.956-2.094 6.281c-.281.85.525 1.656 1.369 1.369l6.275-2.094 2.956 5.919c.4.8 1.538.8 1.938 0l2.956-5.919 6.275 2.094c.85.281 1.656-.525 1.369-1.369l-2.094-6.275 5.919-2.956c.813-.406.813-1.544.012-1.944zm-9.744 6.625c-3.119 3.119-8.194 3.119-11.313 0s-3.119-8.194 0-11.313c3.119-3.119 8.194-3.119 11.313 0s3.119 8.194 0 11.313z"
      /></symbol>
<symbol id="icon-arrow-up-circle" viewBox="0 0 32 32"><path
        d="M2 16c0 7.732 6.268 14 14 14s14-6.268 14-14v0c0-7.732-6.268-14-14-14s-14 6.268-14 14v0zM32 16c0 8.837-7.163 16-16 16s-16-7.163-16-16v0c0-8.837 7.163-16 16-16s16 7.163 16 16v0zM17 23c0 0.552-0.448 1-1 1s-1-0.448-1-1v0-11.586l-4.292 4.294c-0.181 0.181-0.431 0.293-0.708 0.293-0.553 0-1.001-0.448-1.001-1.001 0-0.277 0.112-0.527 0.293-0.708v0l6-6c0.181-0.181 0.431-0.294 0.708-0.294s0.527 0.112 0.708 0.294l6 6c0.181 0.181 0.293 0.431 0.293 0.708 0 0.553-0.448 1.001-1.001 1.001-0.276 0-0.527-0.112-0.708-0.293v0l-4.292-4.294v11.586z"
      /></symbol>
 <symbol id="heart_icon" viewBox="0 0 32 32"><path
        fill="var(--color1, #ff6b08)"
        d="M16 30.583l-2.24-2.24C5.44 20.983 0 16.023 0 9.943c0-4.96 3.84-8.8 8.8-8.8 2.72 0 5.44 1.28 7.2 3.36 1.76-2.08 4.48-3.36 7.2-3.36 4.96 0 8.8 3.84 8.8 8.8 0 6.08-5.44 11.04-13.76 18.4L16 30.583z"
      /></symbol>
<symbol id="logo_icon" viewBox="0 0 24 24"><path
        d="M16 11h-8v-8h8zM8 13h8v8h-8zM6 6h-3v-1.82c0-0.326 0.131-0.62 0.346-0.834s0.508-0.346 0.834-0.346h1.82zM3 8h3v3h-3zM6 16h-3v-3h3zM3 18h3v3h-1.82c-0.326 0-0.62-0.131-0.834-0.346s-0.346-0.508-0.346-0.834zM21 16h-3v-3h3zM18 18h3v1.82c0 0.326-0.131 0.62-0.346 0.834s-0.508 0.346-0.834 0.346h-1.82zM21 6h-3v-3h1.82c0.326 0 0.62 0.131 0.834 0.346s0.346 0.508 0.346 0.834zM23 7v-2.82c0-0.878-0.357-1.674-0.931-2.249s-1.371-0.931-2.249-0.931h-15.64c-0.878 0-1.674 0.357-2.249 0.931s-0.931 1.371-0.931 2.249v15.64c0 0.878 0.357 1.674 0.931 2.249s1.371 0.931 2.249 0.931h15.64c0.878 0 1.674-0.357 2.249-0.931s0.931-1.371 0.931-2.249zM18 8h3v3h-3z"
      /></symbol>
<symbol id="icon-arrow-up" viewBox="0 0 32 32"><path
        fill="#515151"
        style="fill: var(--color1, #515151)"
        d="M18.221 7.206l9.585 9.585c0.407 0.409 0.659 0.974 0.659 1.598s-0.252 1.188-0.659 1.598l0-0-0.8 0.801c-0.41 0.407-0.974 0.658-1.597 0.658s-1.187-0.252-1.597-0.659l-7.315-7.315-7.315 7.315c-0.41 0.407-0.974 0.658-1.597 0.658s-1.187-0.252-1.597-0.659l0 0-0.8-0.801c-0.407-0.409-0.659-0.974-0.659-1.598s0.252-1.188 0.659-1.598l9.587-9.585c0.405-0.403 0.963-0.652 1.579-0.652 0.050 0 0.101 0.002 0.15 0.005l-0.007-0c0.042-0.003 0.091-0.004 0.141-0.004 0.617 0 1.176 0.249 1.582 0.652l-0-0z"
      /></symbol>
<symbol id="icon-linkedin" viewBox="0 0 32 32"><path
        d="M30.24 1.76c-1.173-1.173-2.587-1.76-4.239-1.76h-20c-1.653 0-3.066 0.587-4.24 1.76s-1.76 2.587-1.76 4.24v20c0 1.653 0.587 3.066 1.76 4.24s2.587 1.76 4.24 1.76h20c1.653 0 3.066-0.587 4.239-1.76s1.76-2.587 1.76-4.24v-20c-0-1.653-0.587-3.066-1.76-4.24zM9.75 26.791h-4.813v-14.458h4.813v14.458zM9.313 9.656c-0.5 0.479-1.16 0.719-1.979 0.719h-0.021c-0.792 0-1.434-0.24-1.927-0.719s-0.74-1.073-0.74-1.781c0-0.722 0.254-1.32 0.76-1.792s1.163-0.708 1.969-0.708c0.806 0 1.451 0.236 1.938 0.708s0.736 1.070 0.75 1.792c-0 0.708-0.25 1.302-0.75 1.781zM27.063 26.791h-4.813v-7.729c0-2.18-0.805-3.271-2.416-3.271-0.611 0-1.125 0.17-1.542 0.51s-0.729 0.753-0.937 1.24c-0.097 0.25-0.146 0.639-0.146 1.166v8.083h-4.813c0.042-8.722 0.042-13.542 0-14.458h4.813v2.041c1.012-1.582 2.449-2.375 4.313-2.375 1.667 0 3.007 0.549 4.021 1.646s1.521 2.715 1.521 4.854v8.292h-0z"
      /></symbol>
</defs>
</svg>
