<svg aria-hidden="true" style="position:absolute;width:0;height:0" xmlns="http://www.w3.org/2000/svg" overflow="hidden">
  <defs>
    <symbol id="copyright_icon" viewBox="0 0 32 32"><path fill="#545454" d="M13.44 14.48c.067-.44.213-.827.4-1.16s.453-.613.787-.827c.32-.2.72-.293 1.213-.307.307.013.587.067.84.173.267.12.507.28.693.48s.333.44.453.707.173.56.187.853H20.4c-.027-.627-.147-1.2-.373-1.72s-.533-.973-.933-1.347-.88-.667-1.44-.88-1.173-.307-1.853-.307c-.867 0-1.627.147-2.267.453s-1.173.707-1.6 1.227-.747 1.12-.947 1.813-.32 1.413-.32 2.187v.36c0 .773.107 1.493.307 2.187s.52 1.293.947 1.8.96.92 1.6 1.213 1.4.453 2.267.453c.627 0 1.213-.107 1.76-.307s1.027-.48 1.44-.84.747-.773.987-1.253.387-.987.4-1.533h-2.387c-.013.28-.08.533-.2.773s-.28.44-.48.613-.427.307-.693.4c-.253.093-.52.12-.8.133-.48-.013-.88-.107-1.187-.307-.333-.213-.6-.493-.787-.827s-.333-.733-.4-1.173-.107-.893-.107-1.333v-.36c0-.467.04-.907.107-1.347zM16 2.667C8.64 2.667 2.667 8.64 2.667 16S8.64 29.333 16 29.333 29.333 23.36 29.333 16 23.36 2.667 16 2.667zm0 24C10.12 26.667 5.333 21.88 5.333 16S10.12 5.333 16 5.333 26.667 10.12 26.667 16 21.88 26.667 16 26.667z"/></symbol>
    <symbol id="heart_icon" viewBox="0 0 32 32"><path fill="var(--color1, #ff6b08)" d="M16 30.583l-2.24-2.24C5.44 20.983 0 16.023 0 9.943c0-4.96 3.84-8.8 8.8-8.8 2.72 0 5.44 1.28 7.2 3.36 1.76-2.08 4.48-3.36 7.2-3.36 4.96 0 8.8 3.84 8.8 8.8 0 6.08-5.44 11.04-13.76 18.4L16 30.583z"/></symbol>
    <symbol id="logo_icon" viewBox="0 0 24 24"><path d="M16 11h-8v-8h8zM8 13h8v8h-8zM6 6h-3v-1.82c0-0.326 0.131-0.62 0.346-0.834s0.508-0.346 0.834-0.346h1.82zM3 8h3v3h-3zM6 16h-3v-3h3zM3 18h3v3h-1.82c-0.326 0-0.62-0.131-0.834-0.346s-0.346-0.508-0.346-0.834zM21 16h-3v-3h3zM18 18h3v1.82c0 0.326-0.131 0.62-0.346 0.834s-0.508 0.346-0.834 0.346h-1.82zM21 6h-3v-3h1.82c0.326 0 0.62 0.131 0.834 0.346s0.346 0.508 0.346 0.834zM23 7v-2.82c0-0.878-0.357-1.674-0.931-2.249s-1.371-0.931-2.249-0.931h-15.64c-0.878 0-1.674 0.357-2.249 0.931s-0.931 1.371-0.931 2.249v15.64c0 0.878 0.357 1.674 0.931 2.249s1.371 0.931 2.249 0.931h15.64c0.878 0 1.674-0.357 2.249-0.931s0.931-1.371 0.931-2.249zM18 8h3v3h-3z"></path></symbol>
    <symbol id="search_icon" viewBox="0 0 32 32"><path fill="none" stroke="var(--color3, #fff)" stroke-linejoin="round" stroke-linecap="round" stroke-width="2.667" d="M14.667 25.333c5.891 0 10.667-4.776 10.667-10.667S20.558 3.999 14.667 3.999v0C8.776 3.999 4 8.775 4 14.666s4.776 10.667 10.667 10.667v0zM28 28l-5.8-5.8"/></symbol>
    <symbol id="close_icon" viewBox="0 0 32 32"><path d="M32 3.223L28.777 0 16 12.777 3.223 0 0 3.223 12.777 16 0 28.777 3.223 32 16 19.223 28.777 32 32 28.777 19.223 16 32 3.223z"/></symbol>
    
    <symbol id="icon-arrow-up-circle-fill" viewBox="0 0 32 32"><path d="M32 16c0-8.837-7.163-16-16-16s-16 7.163-16 16v0c0 8.837 7.163 16 16 16s16-7.163 16-16v0zM17 23c0 0.552-0.448 1-1 1s-1-0.448-1-1v0-11.586l-4.292 4.294c-0.181 0.181-0.431 0.293-0.708 0.293-0.553 0-1.001-0.448-1.001-1.001 0-0.277 0.112-0.527 0.293-0.708v0l6-6c0.181-0.181 0.431-0.294 0.708-0.294s0.527 0.112 0.708 0.294l6 6c0.181 0.181 0.293 0.431 0.293 0.708 0 0.553-0.448 1.001-1.001 1.001-0.276 0-0.527-0.112-0.708-0.293v0l-4.292-4.294v11.586z"></path></symbol>
    <symbol id="icon-arrow-up" viewBox="0 0 32 32"><path fill="#515151" style="fill: var(--color1, #515151)" d="M18.221 7.206l9.585 9.585c0.407 0.409 0.659 0.974 0.659 1.598s-0.252 1.188-0.659 1.598l0-0-0.8 0.801c-0.41 0.407-0.974 0.658-1.597 0.658s-1.187-0.252-1.597-0.659l-7.315-7.315-7.315 7.315c-0.41 0.407-0.974 0.658-1.597 0.658s-1.187-0.252-1.597-0.659l0 0-0.8-0.801c-0.407-0.409-0.659-0.974-0.659-1.598s0.252-1.188 0.659-1.598l9.587-9.585c0.405-0.403 0.963-0.652 1.579-0.652 0.050 0 0.101 0.002 0.15 0.005l-0.007-0c0.042-0.003 0.091-0.004 0.141-0.004 0.617 0 1.176 0.249 1.582 0.652l-0-0z"></path></symbol>
    <symbol id="icon-linkedin" viewBox="0 0 32 32"><path d="M30.24 1.76c-1.173-1.173-2.587-1.76-4.239-1.76h-20c-1.653 0-3.066 0.587-4.24 1.76s-1.76 2.587-1.76 4.24v20c0 1.653 0.587 3.066 1.76 4.24s2.587 1.76 4.24 1.76h20c1.653 0 3.066-0.587 4.239-1.76s1.76-2.587 1.76-4.24v-20c-0-1.653-0.587-3.066-1.76-4.24zM9.75 26.791h-4.813v-14.458h4.813v14.458zM9.313 9.656c-0.5 0.479-1.16 0.719-1.979 0.719h-0.021c-0.792 0-1.434-0.24-1.927-0.719s-0.74-1.073-0.74-1.781c0-0.722 0.254-1.32 0.76-1.792s1.163-0.708 1.969-0.708c0.806 0 1.451 0.236 1.938 0.708s0.736 1.070 0.75 1.792c-0 0.708-0.25 1.302-0.75 1.781zM27.063 26.791h-4.813v-7.729c0-2.18-0.805-3.271-2.416-3.271-0.611 0-1.125 0.17-1.542 0.51s-0.729 0.753-0.937 1.24c-0.097 0.25-0.146 0.639-0.146 1.166v8.083h-4.813c0.042-8.722 0.042-13.542 0-14.458h4.813v2.041c1.012-1.582 2.449-2.375 4.313-2.375 1.667 0 3.007 0.549 4.021 1.646s1.521 2.715 1.521 4.854v8.292h-0z"></path></symbol>
    <symbol id="mail_icon" viewBox="0 0 32 32"><path d="M3.071 11.179c0.405 0.286 1.625 1.134 3.661 2.545s3.595 2.497 4.679 3.259c0.119 0.084 0.372 0.265 0.759 0.545s0.708 0.506 0.964 0.679c0.256 0.172 0.565 0.366 0.929 0.58s0.705 0.375 1.027 0.482c0.322 0.107 0.619 0.161 0.893 0.161h0.036c0.274 0 0.571-0.053 0.893-0.161s0.664-0.268 1.027-0.482c0.363-0.214 0.672-0.408 0.928-0.58s0.577-0.399 0.964-0.679c0.387-0.28 0.64-0.461 0.759-0.545 1.095-0.762 3.881-2.696 8.357-5.804 0.869-0.607 1.595-1.339 2.178-2.196s0.875-1.756 0.875-2.696c0-0.786-0.283-1.458-0.848-2.018s-1.235-0.839-2.009-0.839h-26.286c-0.917 0-1.622 0.309-2.116 0.928s-0.741 1.393-0.741 2.321c0 0.75 0.328 1.563 0.982 2.438s1.351 1.563 2.089 2.063z"></path><path d="M30.214 13.089c-3.904 2.643-6.869 4.696-8.893 6.161-0.679 0.5-1.229 0.89-1.652 1.17s-0.985 0.565-1.687 0.857c-0.702 0.292-1.357 0.438-1.964 0.438h-0.036c-0.607 0-1.262-0.146-1.964-0.438s-1.265-0.577-1.687-0.857c-0.422-0.28-0.973-0.67-1.652-1.17-1.607-1.178-4.566-3.232-8.875-6.161-0.679-0.452-1.28-0.97-1.804-1.553v14.178c0 0.786 0.28 1.459 0.839 2.018s1.232 0.84 2.018 0.84h26.286c0.786 0 1.458-0.28 2.018-0.84s0.839-1.232 0.839-2.018v-14.178c-0.512 0.571-1.107 1.089-1.786 1.553z"></path></symbol>
    <symbol id="git_icon" viewBox="0 0 32 32"><path d="M29.854 8.36c-1.431-2.451-3.371-4.392-5.823-5.823s-5.128-2.146-8.031-2.146c-2.903 0-5.58 0.715-8.031 2.146s-4.392 3.371-5.823 5.823c-1.431 2.451-2.146 5.128-2.146 8.031 0 3.486 1.017 6.621 3.052 9.406s4.663 4.712 7.885 5.781c0.375 0.070 0.653 0.021 0.833-0.146s0.271-0.375 0.271-0.625c0-0.042-0.004-0.416-0.011-1.125s-0.011-1.326-0.011-1.854l-0.479 0.083c-0.306 0.056-0.691 0.080-1.156 0.073s-0.948-0.055-1.448-0.146c-0.5-0.090-0.965-0.298-1.396-0.625s-0.736-0.754-0.916-1.281l-0.208-0.479c-0.139-0.319-0.357-0.674-0.656-1.062s-0.601-0.653-0.906-0.792l-0.146-0.104c-0.097-0.069-0.187-0.153-0.271-0.25s-0.146-0.194-0.187-0.292c-0.042-0.097-0.007-0.177 0.104-0.24s0.312-0.093 0.604-0.093l0.417 0.062c0.278 0.056 0.621 0.222 1.031 0.5s0.746 0.639 1.010 1.083c0.32 0.57 0.705 1.004 1.156 1.302s0.906 0.448 1.364 0.448 0.854-0.035 1.187-0.104c0.333-0.069 0.646-0.174 0.937-0.313 0.125-0.931 0.465-1.646 1.021-2.146-0.792-0.083-1.503-0.208-2.135-0.375s-1.285-0.438-1.958-0.813c-0.674-0.375-1.233-0.84-1.677-1.396s-0.809-1.285-1.094-2.188c-0.285-0.903-0.427-1.944-0.427-3.125 0-1.681 0.549-3.111 1.646-4.292-0.514-1.264-0.465-2.68 0.146-4.25 0.403-0.125 1-0.031 1.792 0.281s1.371 0.58 1.74 0.802c0.368 0.222 0.663 0.41 0.885 0.562 1.292-0.361 2.625-0.541 4-0.541s2.708 0.181 4 0.541l0.792-0.5c0.541-0.333 1.181-0.639 1.916-0.917s1.299-0.354 1.688-0.229c0.625 1.569 0.68 2.986 0.166 4.25 1.097 1.181 1.646 2.611 1.646 4.292 0 1.18-0.143 2.225-0.427 3.135s-0.652 1.639-1.104 2.188c-0.452 0.549-1.014 1.011-1.688 1.385s-1.327 0.646-1.958 0.813c-0.632 0.167-1.344 0.292-2.135 0.375 0.722 0.625 1.083 1.611 1.083 2.958v4.395c0 0.25 0.087 0.458 0.261 0.625s0.448 0.215 0.823 0.146c3.222-1.069 5.851-2.996 7.886-5.781s3.052-5.92 3.052-9.406c-0.001-2.902-0.716-5.579-2.146-8.030z"></path></symbol>
    <symbol id="mobile-phone_icon" viewBox="0 0 32 32"><path d="M30.24 1.76c-1.173-1.173-2.587-1.76-4.239-1.76h-20c-1.653 0-3.066 0.587-4.24 1.76s-1.76 2.587-1.76 4.24v20c0 1.653 0.587 3.066 1.76 4.24s2.587 1.76 4.24 1.76h20c1.653 0 3.066-0.587 4.239-1.76s1.76-2.587 1.76-4.24v-20c-0-1.653-0.587-3.066-1.76-4.24zM26.208 24.29c-0.292 0.639-0.948 1.195-1.968 1.667s-1.927 0.709-2.719 0.709c-0.222 0-0.458-0.017-0.708-0.052s-0.461-0.069-0.635-0.104c-0.174-0.035-0.403-0.097-0.687-0.188s-0.49-0.16-0.615-0.208c-0.125-0.048-0.354-0.135-0.687-0.26s-0.542-0.202-0.625-0.229c-2.278-0.834-4.504-2.337-6.677-4.511s-3.677-4.399-4.51-6.677c-0.028-0.083-0.104-0.292-0.229-0.625s-0.212-0.562-0.261-0.687c-0.048-0.125-0.118-0.33-0.208-0.614s-0.153-0.514-0.187-0.688c-0.035-0.173-0.069-0.385-0.104-0.635s-0.052-0.486-0.052-0.709c0-0.792 0.236-1.698 0.709-2.719s1.028-1.677 1.667-1.969c0.736-0.306 1.438-0.458 2.104-0.458 0.153 0 0.264 0.014 0.333 0.042s0.184 0.153 0.344 0.375 0.333 0.503 0.521 0.844c0.188 0.34 0.372 0.67 0.552 0.99s0.354 0.635 0.521 0.948c0.167 0.312 0.271 0.51 0.312 0.593 0.042 0.070 0.132 0.202 0.271 0.396s0.243 0.368 0.313 0.521c0.069 0.153 0.104 0.299 0.104 0.438 0 0.209-0.143 0.462-0.427 0.76s-0.597 0.573-0.938 0.823-0.653 0.518-0.937 0.802c-0.284 0.284-0.427 0.517-0.427 0.698 0 0.097 0.024 0.212 0.073 0.344s0.094 0.24 0.135 0.323c0.042 0.083 0.108 0.201 0.198 0.354s0.149 0.25 0.177 0.292c0.764 1.375 1.642 2.559 2.635 3.552s2.177 1.872 3.552 2.635c0.041 0.028 0.139 0.087 0.292 0.177s0.271 0.156 0.354 0.198c0.083 0.042 0.191 0.087 0.323 0.135s0.247 0.073 0.344 0.073c0.222 0 0.527-0.229 0.916-0.687s0.785-0.913 1.188-1.365c0.402-0.451 0.729-0.677 0.979-0.677 0.139 0 0.284 0.035 0.438 0.104s0.326 0.174 0.52 0.313c0.195 0.139 0.327 0.229 0.396 0.272l1.104 0.604c0.736 0.389 1.351 0.733 1.844 1.031s0.761 0.503 0.802 0.614c0.028 0.069 0.041 0.181 0.041 0.334-0 0.666-0.153 1.368-0.459 2.102z"></path></symbol>
    <symbol id="phone_icon" viewBox="0 0 32 32"><path d="M9.386 9.825v20.56c0 0.89 0.725 1.615 1.614 1.615h9.999c0.891 0 1.614-0.724 1.614-1.615v-20.56c0-0.89-0.724-1.614-1.614-1.614h-9.999c-0.889 0-1.614 0.724-1.614 1.614zM10.018 9.825c0-0.542 0.441-0.983 0.983-0.983h9.999c0.543 0 0.983 0.441 0.983 0.983v20.56c0 0.542-0.44 0.983-0.983 0.983h-9.999c-0.542 0-0.983-0.441-0.983-0.983v-20.56h0.001z"></path><path d="M10.8 29.202h10.4c0 0 0 0 0.001 0 0.087 0 0.158-0.071 0.158-0.158v0-18.050c-0-0.087-0.071-0.158-0.158-0.158-0 0-0 0-0 0h-10.4c-0.087 0-0.158 0.071-0.158 0.158v18.050c-0.001 0.087 0.071 0.158 0.158 0.158zM11.528 11.152h8.944c0.315 0 0.571 0.256 0.571 0.571v16.593c0 0.315-0.256 0.571-0.571 0.571h-8.944c-0.315 0-0.571-0.256-0.571-0.571v-16.593c0-0 0-0 0-0 0-0.315 0.255-0.571 0.571-0.571 0 0 0 0 0 0v0zM15.113 9.875h1.775c0.087-0 0.157-0.070 0.157-0.157 0-0 0-0 0-0.001v0c0-0 0-0 0-0 0-0.087-0.070-0.157-0.157-0.157h-1.775c-0.001-0-0.003-0-0.004-0-0.087 0-0.158 0.071-0.158 0.158s0.071 0.158 0.158 0.158c0.002 0 0.003-0 0.005-0h-0zM16.909 29.562h-1.819c-0.373 0-0.677 0.304-0.677 0.678v0.108c0 0.373 0.303 0.678 0.677 0.678h1.819c0.373 0 0.678-0.304 0.678-0.678v-0.108c-0.001-0.373-0.305-0.678-0.678-0.678zM17.271 30.348c0 0 0 0 0 0 0 0.2-0.162 0.361-0.361 0.361h-1.819c-0.2-0-0.361-0.162-0.361-0.361 0-0 0-0 0-0v0-0.108c0-0.2 0.162-0.361 0.361-0.361h1.819c0.2 0 0.361 0.162 0.361 0.361v0 0.108zM15.998 3.78c-1.613 0-3.050 1.025-3.573 2.551-0.012 0.032-0.018 0.070-0.018 0.109 0 0.053 0.012 0.103 0.035 0.147l-0.001-0.002c0.039 0.079 0.106 0.139 0.188 0.168l0.002 0.001c0.171 0.059 0.366-0.037 0.424-0.207 0.431-1.256 1.614-2.1 2.943-2.1 1.216 0 2.328 0.715 2.833 1.82 0.039 0.083 0.082 0.19 0.119 0.3l0.007 0.024c0.044 0.135 0.169 0.231 0.316 0.231 0 0 0.001 0 0.001 0h-0c0.036 0 0.069-0.006 0.104-0.016 0.174-0.057 0.271-0.245 0.214-0.42-0.052-0.161-0.104-0.292-0.163-0.419l0.010 0.024c-0.615-1.343-1.963-2.21-3.44-2.21z"></path><path d="M20.644 5.603c0.052 0.121 0.169 0.204 0.306 0.204v0c0.045 0 0.088-0.009 0.129-0.026 0.083-0.035 0.147-0.1 0.18-0.182 0.016-0.037 0.025-0.081 0.025-0.126 0-0.047-0.010-0.091-0.027-0.131l0.001 0.002c-0.105-0.247-0.207-0.449-0.321-0.645l0.015 0.027c-1.014-1.772-2.913-2.872-4.953-2.872-0.002 0-0.004 0-0.007 0-2.347 0-4.363 1.42-5.236 3.447l-0.014 0.037c-0.070 0.169 0.009 0.365 0.178 0.437 0.166 0.068 0.367-0.014 0.437-0.178 0.783-1.823 2.563-3.076 4.636-3.076 0.002 0 0.004 0 0.005 0h-0c1.803 0 3.478 0.972 4.375 2.537 0.101 0.174 0.191 0.357 0.271 0.545z"></path><path d="M9.213 5.053c0.167 0.070 0.368-0.014 0.437-0.178 1.082-2.557 3.573-4.208 6.348-4.208 2.667 0 5.119 1.561 6.246 3.978 0.025 0.049 0.061 0.127 0.094 0.206l0.011 0.030c0.052 0.121 0.17 0.204 0.308 0.204h0c0.045 0 0.088-0.009 0.13-0.026 0.082-0.034 0.146-0.099 0.178-0.179l0.001-0.002c0.016-0.037 0.025-0.080 0.025-0.125 0-0.047-0.010-0.092-0.028-0.133l0.001 0.002c-0.035-0.087-0.075-0.173-0.114-0.259-1.237-2.65-3.926-4.363-6.852-4.363-3.043 0-5.777 1.812-6.963 4.616-0.071 0.169 0.009 0.365 0.178 0.437z"></path></symbol>
    <symbol id="telephone_icon" viewBox="0 0 32 32"><path d="M21.684 22.587c-0.325-0.323-0.776-0.501-1.271-0.501-0.522 0-1.025 0.204-1.381 0.56l-2.25 2.248-0.607-0.336c-1.337-0.742-3.167-1.758-5.101-3.694-1.941-1.939-2.958-3.774-3.702-5.117l-0.331-0.591 2.252-2.252c0.745-0.747 0.771-1.937 0.056-2.653l-4.161-4.16c-0.324-0.324-0.775-0.502-1.27-0.502-0.522 0-1.024 0.204-1.381 0.561l-1.022 1.028-0.095 0.156c-0.368 0.47-0.68 1.009-0.909 1.59l-0.015 0.044c-0.216 0.569-0.351 1.11-0.413 1.653-0.536 4.459 1.52 8.553 7.099 14.131 6.61 6.609 12.135 7.124 13.671 7.124 0.264 0 0.423-0.015 0.467-0.020 0.568-0.069 1.11-0.206 1.659-0.417 0.591-0.231 1.138-0.54 1.625-0.92l0.233-0.183 0.956-0.938c0.744-0.744 0.768-1.933 0.054-2.647l-4.161-4.164zM25.273 28.883l-0.736 0.728c-0.348 0.335-0.947 0.806-1.823 1.148-0.494 0.191-0.979 0.312-1.479 0.372-0.027 0.003-0.14 0.011-0.322 0.011-1.48 0-6.807-0.498-13.216-6.905-6.31-6.312-7.318-9.973-6.89-13.53 0.056-0.486 0.177-0.969 0.368-1.476 0.348-0.885 0.819-1.484 1.152-1.828l0.725-0.735c0.224-0.224 0.54-0.353 0.867-0.353 0.297 0 0.565 0.104 0.754 0.294l4.162 4.159c0.429 0.431 0.405 1.159-0.057 1.622l-2.65 2.649 0.144 0.244c0.145 0.245 0.298 0.52 0.464 0.82 0.766 1.379 1.813 3.267 3.823 5.277 2.015 2.014 3.895 3.056 5.27 3.818 0.312 0.173 0.583 0.324 0.825 0.468l0.245 0.146 2.649-2.651c0.223-0.222 0.538-0.35 0.866-0.35 0.298 0 0.567 0.104 0.756 0.294l4.16 4.157c0.429 0.434 0.404 1.16-0.055 1.621z"></path><path d="M13.46 14.206l-0.073 0.156 0.169 0.044c1.058 0.271 1.968 0.803 2.689 1.523l-0-0c0.688 0.689 1.204 1.548 1.481 2.51l0.010 0.041 0.029 0.102 0.163 0.005c0.041 0.001 0.083 0.003 0.126 0.006 0.101 0.009 0.2 0.019 0.298 0.031 0.088 0.011 0.176 0.021 0.264 0.029l0.2 0.018-0.046-0.196c-0.309-1.282-0.944-2.387-1.813-3.257l0 0c-0.827-0.825-1.867-1.439-3.030-1.751l-0.047-0.011-0.136-0.036-0.039 0.134c-0.076 0.258-0.159 0.474-0.255 0.682l0.013-0.031zM13.85 10.168l0.013 0.104 0.105 0.021c1.991 0.368 3.786 1.307 5.195 2.715 1.617 1.618 2.604 3.68 2.854 5.968l0.012 0.108 0.315 0.046c0.101 0.008 0.2 0.008 0.3 0.008 0.075-0.002 0.149 0 0.223 0.003l0.164 0.006-0.016-0.164c-0.253-2.573-1.34-4.883-3.142-6.686-1.613-1.613-3.674-2.666-5.96-3.043l-0.197-0.033 0.031 0.197c0.040 0.251 0.075 0.501 0.103 0.75z"></path><path d="M23.046 9.125c-2.678-2.678-6.246-4.272-10.047-4.489l-0.18-0.012 0.030 0.178c0.039 0.24 0.086 0.485 0.133 0.735l0.022 0.107 0.109 0.007c3.489 0.239 6.763 1.724 9.222 4.183 2.42 2.42 3.9 5.657 4.165 9.114l0.011 0.143 0.142-0.009c0.22-0.014 0.383-0.026 0.546-0.041l-0.074 0.005 0.392-0.032-0.012-0.144c-0.283-3.692-1.867-7.152-4.46-9.745z"></path><path d="M31.988 18.446c-0.379-4.719-2.43-9.157-5.767-12.497-3.564-3.563-8.308-5.631-13.357-5.819l-0.14-0.006-0.011 0.139c-0.011 0.16-0.016 0.319-0.022 0.48l-0.017 0.39 0.144 0.006c4.8 0.178 9.306 2.14 12.69 5.524 3.171 3.171 5.117 7.385 5.479 11.869l0.012 0.147 0.148-0.015c0.213-0.022 0.431-0.039 0.649-0.056l0.204-0.016-0.012-0.145z"></path></symbol>
    <symbol id="icon-moon" viewBox="0 0 32 32"><path d="M10.895 7.574c0 7.55 5.179 13.67 11.567 13.67 1.588 0 3.101-.38 4.479-1.063-1.695 4.46-5.996 7.636-11.051 7.636-6.533 0-11.83-5.297-11.83-11.83 0-4.82 2.888-8.959 7.023-10.803a16.16 16.16 0 00-.188 2.39z"/></symbol>
    <symbol id="icon-brightness-up" viewBox="0 0 20 20"><path d="M10 14a4 4 0 010-8 4 4 0 010 8zM9 1a1 1 0 012 0v2a1 1 0 01-2 0V1zm6.65 1.94a1 1 0 111.412 1.408l-.001.001-1.4 1.4a1 1 0 11-1.412-1.408l.001-.001 1.4-1.4zM18.99 9a1 1 0 010 2h-1.98a1 1 0 010-2h1.98zm-1.93 6.65a1 1 0 11-1.408 1.412l-.001-.001-1.4-1.4a1 1 0 111.408-1.412l.001.001 1.4 1.4zM11 18.99a1 1 0 01-2 0v-1.98a1 1 0 012 0v1.98zm-6.65-1.93a1 1 0 11-1.412-1.408l.001-.001 1.4-1.4a1 1 0 111.412 1.408l-.001.001-1.4 1.4zM1.01 11a1 1 0 010-2h1.98a1 1 0 010 2H1.01zm1.93-6.65a1 1 0 111.408-1.412l.001.001 1.4 1.4a1 1 0 11-1.408 1.412L4.34 5.75l-1.4-1.4z"/></symbol>
  </defs>
</svg>